<svg width="512" height="512" xmlns="http://www.w3.org/2000/svg" xmlns:xlink="http://www.w3.org/1999/xlink" xml:space="preserve" overflow="hidden"><g transform="translate(-96 -130)"><path d="M440 404.667 474.667 439.333 509.333 404.667 544 439.333 586.667 386 544 332.667 328 332.667C308.8 297.467 272 274 229.333 274 167.467 274 117.333 324.133 117.333 386 117.333 447.867 167.467 498 229.333 498 272 498 308.8 474.533 328 439.333L362.667 439.333 384 418 405.333 439.333 440 404.667ZM181.333 418C163.733 418 149.333 403.6 149.333 386 149.333 368.4 163.733 354 181.333 354 198.933 354 213.333 368.4 213.333 386 213.333 403.6 198.933 418 181.333 418Z" fill="#404040"/></g></svg>